<?xml version="1.0" encoding="utf-8"?>
<!-- Generator: Adobe Illustrator 16.0.0, SVG Export Plug-In . SVG Version: 6.00 Build 0)  -->
<!DOCTYPE svg PUBLIC "-//W3C//DTD SVG 1.1//EN" "http://www.w3.org/Graphics/SVG/1.1/DTD/svg11.dtd">
<svg version="1.1" id="Layer_1" xmlns="http://www.w3.org/2000/svg" xmlns:xlink="http://www.w3.org/1999/xlink" x="0px" y="0px"
	 width="50px" height="50px" viewBox="0 0 50 50" enable-background="new 0 0 50 50" xml:space="preserve">
<path fill="#0D436B" d="M6.628,23.813c0.285-0.199,0.8-1.376,4.729-2.032c1.325-0.222,5.4-0.038,10.568,0.202l9.527-7.025
	l3.424-0.492l-6.932,7.784c3.365,0.137,6.893,0.249,10.264,0.265l4.984-5.942l1.947,0.018l-3.18,8.092l2.646,2.753l-2.381,0.313
	l-2.23-1.727c-3.594,0.805-8.004,1.473-13.281,1.756l4.961,7.756l-3.09-0.436l-6.981-7.131C7.35,28.256,5.421,26.213,4.949,25.626
	C4.429,24.982,6.342,24.01,6.628,23.813z"/>
</svg>
