<?xml version="1.0" encoding="utf-8"?>
<!-- Generator: Adobe Illustrator 16.0.0, SVG Export Plug-In . SVG Version: 6.00 Build 0)  -->
<!DOCTYPE svg PUBLIC "-//W3C//DTD SVG 1.1//EN" "http://www.w3.org/Graphics/SVG/1.1/DTD/svg11.dtd">
<svg version="1.1" id="Layer_1" xmlns="http://www.w3.org/2000/svg" xmlns:xlink="http://www.w3.org/1999/xlink" x="0px" y="0px"
	 width="283.46px" height="283.46px" viewBox="0 0 283.46 283.46" enable-background="new 0 0 283.46 283.46" xml:space="preserve">
<g>
	<path fill="#00A5BE" d="M255.627,130.592c0-44.668-36.211-80.879-80.881-80.879c-10.81,0-21.115,2.137-30.541,5.985
		c-9.777-11.64-24.433-19.044-40.824-19.044c-29.435,0-53.297,23.862-53.297,53.297c0,8.23,1.868,16.024,5.2,22.983
		c-15.646,3.064-27.451,16.844-27.451,33.387c0,18.793,15.233,34.027,34.026,34.027c1.089,0,2.164-0.057,3.226-0.156
		c-0.407,2.777-0.626,5.617-0.626,8.508c0,32.092,26.015,58.107,58.107,58.107c24.022,0,44.636-14.578,53.486-35.367
		C220.117,210.738,255.627,174.824,255.627,130.592z"/>
	<g>
		<g>
			<path fill="#FFFFFF" d="M74.619,84.141c-0.152,1.671-0.367,4.188,2.474,7.197c1.645,1.741,5.023,4.178,10.159,5.677
				c4.977,1.439,8.518,2.922,10.626,4.451s3.163,3.373,3.163,5.53c0,2.179-1.469,4.532-4.407,7.06
				c-2.937,2.528-6.479,4.451-10.626,5.771c-4.147,1.319-7.669,1.978-10.566,1.978c-2.418,0-4.252-0.285-5.501-0.854
				c-1.248-0.57-1.873-1.284-1.873-2.144c0-0.6,0.185-1.334,0.555-2.203c0.369-0.869,0.744-1.304,1.124-1.304
				c0.399,0,0.81,0.07,1.229,0.21c2.138,0.799,4.257,1.199,6.354,1.199c3.777,0,7.783-1.104,12.021-3.313
				c4.236-2.208,6.354-4.271,6.354-6.189c0-0.819-0.645-1.604-1.934-2.353c-1.289-0.75-4.552-1.954-9.787-3.612
				c-6.494-2.058-8.979-3.751-11.784-8.201c-2.642-4.191-2.545-7.642-2.031-9.738c5.529-22.565,60.344-29.111,92.174-16.612
				c14.714,5.778,23.982,15.664,30.853,23.581l-0.673,0.571c-10.33-9.65-17.574-13.78-20.676-15.544
				c-11.788-6.704-24.429-9.043-35.446-10.636C109.469,60.769,75.764,71.616,74.619,84.141z"/>
			<path fill="#FFFFFF" d="M109.635,106.229c0.216-0.283,1.702-1.619,4.458-4.01c2.605-2.274,4.424-3.926,5.453-4.955
				c3.834-3.834,6.59-5.752,8.267-5.752c1.295,0,1.942,0.623,1.942,1.868c0,1.411-0.639,2.449-1.917,3.112
				c-1.66,0.847-3.876,2.254-6.648,4.221c-2.772,1.967-4.159,3.357-4.159,4.17c0,0.333,0.979,1.573,2.938,3.723
				s3.652,3.735,5.08,4.756s2.813,1.531,4.158,1.531l0.822-0.025c0.58-0.033,0.872,0.225,0.872,0.772
				c0,0.731-0.458,1.473-1.371,2.229c-0.912,0.755-2.116,1.133-3.61,1.133c-0.962,0-1.938-0.336-2.926-1.009
				c-0.987-0.672-2.743-2.486-5.267-5.441c-2.009-2.44-3.262-3.897-3.76-4.37s-0.913-0.709-1.245-0.709
				c-0.183,0-0.764,0.432-1.743,1.295s-1.515,1.519-1.605,1.967c-0.092,0.448-0.137,2.158-0.137,5.129v1.17
				c0,0.614-0.291,1.162-0.872,1.644c-0.581,0.481-1.212,0.722-1.893,0.722c-0.697,0-1.245-0.204-1.644-0.61
				s-0.598-0.826-0.598-1.257c0-0.598,0.225-2.009,0.673-4.233c0.631-3.204,1.211-7.495,1.742-12.874
				c1.229-12.699,2.175-19.883,2.84-21.552c0.663-1.668,1.609-2.503,2.838-2.503c0.432,0,0.793,0.233,1.083,0.697
				c0.291,0.465,0.437,1.063,0.437,1.793c0,1.329-0.573,4.856-1.719,10.583C110.979,95.19,110.149,100.784,109.635,106.229z"/>
			<path fill="#FFFFFF" d="M153.361,109.068c-3.056,2.656-5.739,4.586-8.056,5.79c-2.315,1.204-4.089,1.805-5.315,1.805
				c-1.645,0-2.902-0.685-3.773-2.054c-0.872-1.37-1.308-2.967-1.308-4.793c0-2.556,0.519-5.715,1.556-9.475
				c1.038-3.76,1.81-5.992,2.317-6.698c0.505-0.705,1.315-1.058,2.428-1.058c0.464,0,0.846,0.274,1.146,0.822
				c0.298,0.548,0.447,1.17,0.447,1.867c0,0.416-0.19,0.955-0.573,1.619c-0.896,1.56-1.364,2.423-1.407,2.589
				c-0.04,0.166-0.359,1.167-0.958,3c-0.597,1.834-0.896,3.557-0.896,5.167c0,0.565,0.138,1.444,0.411,2.64s0.842,1.792,1.705,1.792
				c0.913,0,2.038-0.277,3.376-0.834c1.336-0.556,2.841-1.465,4.519-2.727c1.677-1.261,2.806-2.282,3.387-3.063
				c0.58-0.781,0.991-1.668,1.233-2.665c0.24-0.996,0.409-3.154,0.509-6.475c0.1-3.32,0.905-4.98,2.416-4.98
				c0.896,0,1.478,0.237,1.742,0.71c0.267,0.473,0.399,1.374,0.399,2.702c0,1.095-0.074,2.465-0.224,4.108
				c-0.184,2.075-0.3,3.553-0.35,4.433c-0.232,4.565-0.825,9.151-1.78,13.757c-0.954,4.607-2.345,8.458-4.171,11.554
				c-1.825,3.096-4.341,4.645-7.545,4.645c-3.253,0-6.146-0.852-8.678-2.554c-2.532-1.702-3.797-3.142-3.797-4.32
				c0-0.548,0.128-1.087,0.385-1.619c0.258-0.531,0.585-0.797,0.984-0.797c0.199,0,0.414,0.158,0.647,0.474
				c2.175,3.336,5.594,5.005,10.258,5.005c2.408,0,4.43-2.113,6.064-6.337c1.634-4.225,2.535-8.188,2.701-11.89
				C153.194,110.496,153.261,109.782,153.361,109.068z"/>
			<path fill="#FFFFFF" d="M105.377,140.982c0.631,0,1.187,0.228,1.669,0.685c0.48,0.456,0.722,1.032,0.722,1.73
				c0,1.178-0.365,3.76-1.096,7.744c-0.896,4.881-1.527,10.08-1.893,15.6c-0.365,5.521-0.548,8.979-0.548,10.371
				c0,0.766-0.345,1.52-1.033,2.266c-0.689,0.748-1.291,1.123-1.806,1.123c-0.547,0-1.063-0.221-1.543-0.662
				c-0.482-0.439-0.723-0.99-0.723-1.654c0-0.6,0.257-2.715,0.772-6.35c0.431-3.072,0.646-5.287,0.646-6.65
				c0-0.797-0.116-1.344-0.349-1.643s-0.622-0.449-1.17-0.449c-0.83,0-2.457,0.092-4.881,0.275
				c-2.623,0.217-4.258,0.324-4.905,0.324c-0.681,0-2.411,0.107-5.191,0.322c-2.781,0.217-4.316,0.402-4.607,0.561
				c-0.29,0.158-0.589,1.254-0.896,3.287c-0.308,2.035-0.495,3.723-0.561,5.068c-0.083,2.307-0.345,4.213-0.785,5.713
				c-0.439,1.502-1.008,2.254-1.705,2.254c-0.481,0-1.075-0.377-1.78-1.133c-0.706-0.756-1.059-1.514-1.059-2.279
				c0-0.662,0.199-1.799,0.598-3.41c0.548-2.207,1.208-6.15,1.979-11.828s1.44-11.578,2.005-17.705
				c0.033-0.396,0.257-0.805,0.672-1.219c0.415-0.415,0.855-0.624,1.32-0.624c1.627,0,2.44,1.172,2.44,3.512
				c0,1.377-0.299,3.594-0.897,6.648c-0.531,2.756-0.796,4.748-0.796,5.975c0,0.516,0.165,0.889,0.498,1.121
				c0.331,0.234,1.12,0.348,2.365,0.348c2.723,0,6.387-0.219,10.994-0.658c4.606-0.439,7.088-1.072,7.445-1.893
				c0.356-0.822,0.722-2.689,1.095-5.604c0.374-2.912,0.561-5.955,0.561-9.127c0-0.364,0.257-0.795,0.772-1.293
				C104.224,141.23,104.779,140.982,105.377,140.982z"/>
			<path fill="#FFFFFF" d="M118.076,173.527c0,1.262,0.175,2.68,0.523,4.258c0.065,0.299,0.1,0.549,0.1,0.746
				c0,0.299-0.274,0.684-0.822,1.158c-0.548,0.473-1.129,0.709-1.743,0.709c-1.61,0-2.415-1.477-2.415-4.432
				c0-3.055,0.631-7.885,1.893-14.492c0.432-2.309,0.647-3.727,0.647-4.258c0-1.045,0.19-1.939,0.572-2.676
				c0.382-0.74,0.922-1.109,1.619-1.109c0.847,0,1.515,0.203,2.004,0.609c0.49,0.406,0.734,0.859,0.734,1.357
				s-0.116,1.154-0.348,1.967c-1.245,4.383-2.018,7.521-2.316,9.414S118.076,170.92,118.076,173.527z M121.339,145.713
				c-0.349,0-0.614-0.375-0.797-1.121c-0.066-0.232-0.158-0.49-0.274-0.771c-0.448-1.08-0.672-2.018-0.672-2.815
				c0-0.663,0.394-1.34,1.183-2.029c0.788-0.688,1.664-1.032,2.627-1.032c0.481,0,1.021,0.186,1.619,0.559
				c0.597,0.374,0.896,0.735,0.896,1.084c0,0.547-0.203,1.479-0.609,2.789c-0.407,1.312-1.055,2.197-1.942,2.652
				C122.479,145.484,121.803,145.713,121.339,145.713z"/>
			<path fill="#FFFFFF" d="M145.666,170.041c-0.198-0.15-0.755,0.314-1.668,1.393c-1.511,1.779-3.441,3.355-5.79,4.732
				c-2.35,1.379-4.527,2.066-6.536,2.066c-1.493,0-2.664-0.469-3.511-1.406c-0.847-0.939-1.27-2.236-1.27-3.896
				c0-2.574,0.971-5.441,2.912-8.604c1.942-3.162,4.661-5.922,8.156-8.281c3.493-2.355,6.553-3.535,9.175-3.535
				c1.379,0,2.591,0.398,3.637,1.195c0.248,0.199,0.464,0.365,0.647,0.498c0.299,0.217,0.58,0.65,0.846,1.307
				c0.267,0.656,0.399,1.184,0.399,1.582c0,0.25-0.092,0.631-0.275,1.145c-1.013,2.756-1.702,5.039-2.066,6.848
				c-0.365,1.811-0.763,4.857-1.195,9.139c-0.397,3.852-0.83,6.816-1.294,8.891c-0.466,2.074-1.305,4.084-2.515,6.025
				c-1.213,1.943-2.665,3.4-4.358,4.371c-1.692,0.971-3.437,1.457-5.229,1.457c-3.104,0-6.167-1.07-9.188-3.213
				c-3.021-2.143-4.531-3.859-4.531-5.154c0-0.813,0.308-1.221,0.921-1.221c0.299,0,1.188,0.488,2.664,1.471
				c3.901,2.605,7.412,3.908,10.534,3.908c2.722,0,4.793-1.453,6.212-4.357c1.419-2.906,2.387-7.246,2.9-13.023
				C145.358,172.066,145.499,170.953,145.666,170.041z M145.616,156.369c-1.411,0-3.175,0.732-5.291,2.191
				c-2.117,1.461-4.172,3.602-6.164,6.424c-1.992,2.824-2.986,5.189-2.986,7.098c0,0.648,0.202,1.158,0.609,1.531
				c0.406,0.375,0.859,0.561,1.357,0.561c1.477,0,3.406-0.764,5.789-2.291c2.382-1.527,4.433-3.648,6.15-6.361
				c1.719-2.715,2.577-4.844,2.577-6.389C147.658,157.291,146.978,156.369,145.616,156.369z"/>
			<path fill="#FFFFFF" d="M161.43,171.584c6.175-11.404,11.262-17.107,15.263-17.107c1.063,0,1.926,0.605,2.59,1.818
				c0.663,1.213,1.204,3.9,1.619,8.068c0.415,4.432,1.353,7.637,2.814,9.611c0.746,1.014,1.119,1.76,1.119,2.24
				c0,0.434-0.249,0.832-0.746,1.195c-0.499,0.367-1.029,0.549-1.594,0.549c-1.295,0-2.44-0.727-3.437-2.18
				c-0.996-1.451-1.636-4.004-1.917-7.656c-0.282-3.453-0.582-5.711-0.896-6.773c-0.315-1.061-0.839-1.594-1.568-1.594
				c-1.744,0-5.254,4.559-10.534,13.67c-1.576,2.723-2.739,4.504-3.485,5.342c-0.747,0.838-1.429,1.258-2.042,1.258
				c-0.73,0-1.346-0.215-1.843-0.648c-0.499-0.43-0.747-0.961-0.747-1.592c0-0.465,0.132-1.361,0.397-2.689
				c2.042-10.541,3.652-20.967,4.831-31.275c0.267-2.408,0.694-4.01,1.283-4.807c0.588-0.796,1.082-1.195,1.481-1.195
				c0.714,0,1.36,0.292,1.942,0.872c0.58,0.581,0.871,1.387,0.871,2.416c0,3.054-0.747,7.246-2.24,12.574
				c-0.731,2.641-1.503,5.994-2.316,10.061c-0.814,4.068-1.221,6.584-1.221,7.545c0,0.199,0.092,0.299,0.275,0.299H161.43z"/>
		</g>
		<g>
			<g>
				<g>
					<g>
						<g>
							<polygon fill="#FFFFFF" points="195.168,94.134 195.935,93.527 194.384,91.532 193.637,92.162 							"/>
							<polygon fill="#FFFFFF" points="197.448,97.07 198.242,96.5 196.692,94.504 195.917,95.099 							"/>
							<polygon fill="#FFFFFF" points="199.496,100.171 200.316,99.64 198.935,97.523 198.132,98.081 							"/>
							<path fill="#FFFFFF" d="M201.473,103.317l0.845-0.491c0,0-0.075-0.139-0.188-0.348c-0.104-0.213-0.268-0.483-0.446-0.744
								c-0.346-0.529-0.69-1.058-0.69-1.058l-0.829,0.519c0,0,0.341,0.522,0.682,1.044c0.177,0.258,0.339,0.524,0.441,0.735
								C201.398,103.18,201.473,103.317,201.473,103.317z"/>
							<polygon fill="#FFFFFF" points="203.235,106.589 204.104,106.141 202.904,103.915 202.052,104.392 							"/>
							<path fill="#FFFFFF" d="M204.858,109.929l0.89-0.405c0,0-0.251-0.58-0.502-1.16c-0.124-0.291-0.247-0.582-0.368-0.786
								c-0.112-0.208-0.188-0.348-0.188-0.348l-0.876,0.435c0,0,0.074,0.137,0.186,0.343c0.12,0.202,0.241,0.489,0.363,0.776
								C204.611,109.356,204.858,109.929,204.858,109.929z"/>
							<polygon fill="#FFFFFF" points="206.333,113.339 207.242,112.979 206.239,110.659 205.343,111.049 							"/>
						</g>
					</g>
					<g>
						<g>
							<polygon fill="#FFFFFF" points="207.573,116.839 208.5,116.527 207.704,114.127 206.789,114.471 							"/>
							<path fill="#FFFFFF" d="M208.729,120.369l0.941-0.264c0,0-0.031-0.155-0.111-0.378c-0.074-0.225-0.174-0.525-0.273-0.825
								c-0.198-0.6-0.397-1.2-0.397-1.2l-0.932,0.296c0,0,0.196,0.592,0.393,1.184c0.099,0.296,0.196,0.592,0.271,0.814
								C208.699,120.216,208.729,120.369,208.729,120.369z"/>
							<polygon fill="#FFFFFF" points="209.576,123.986 210.53,123.772 209.953,121.31 209.008,121.558 							"/>
							<path fill="#FFFFFF" d="M210.322,127.623l0.964-0.164c0,0-0.077-0.628-0.187-1.25c-0.144-0.615-0.287-1.231-0.287-1.231
								l-0.958,0.198c0,0,0.143,0.607,0.285,1.214C210.247,127.003,210.322,127.623,210.322,127.623z"/>
							<polygon fill="#FFFFFF" points="210.835,131.302 211.806,131.189 211.457,128.684 210.49,128.832 							"/>
							<path fill="#FFFFFF" d="M211.16,135l0.976-0.063c0,0-0.029-0.631-0.059-1.263c-0.018-0.315-0.024-0.632-0.046-0.868
								c-0.032-0.235-0.055-0.392-0.055-0.392l-0.973,0.097c0,0,0.021,0.154,0.054,0.386c0.021,0.233,0.028,0.545,0.045,0.856
								C211.131,134.376,211.16,135,211.16,135z"/>
							<polygon fill="#FFFFFF" points="211.332,138.71 212.31,138.698 212.192,136.173 211.216,136.219 							"/>
						</g>
					</g>
					<g>
						<g>
							<polygon fill="#FFFFFF" points="211.289,142.424 212.266,142.463 212.338,139.936 211.36,139.93 							"/>
							<polygon fill="#FFFFFF" points="211.04,146.129 212.014,146.22 212.229,143.7 211.253,143.644 							"/>
							<path fill="#FFFFFF" d="M210.6,149.816l0.968,0.141c0,0,0.089-0.625,0.179-1.251c0.044-0.313,0.089-0.626,0.122-0.861
								c0.033-0.234,0.04-0.393,0.04-0.393l-0.972-0.107c0,0-0.007,0.156-0.039,0.388c-0.033,0.231-0.077,0.541-0.121,0.85
								C210.688,149.199,210.6,149.816,210.6,149.816z"/>
							<path fill="#FFFFFF" d="M209.968,153.476l0.958,0.192c0,0,0.125-0.62,0.249-1.24c0.138-0.617,0.217-1.244,0.218-1.244
								l-0.965-0.158c-0.001,0-0.078,0.619-0.215,1.228C210.091,152.864,209.968,153.476,209.968,153.476z"/>
							<path fill="#FFFFFF" d="M209.146,157.098l0.947,0.241c0,0,0.158-0.612,0.317-1.224c0.085-0.305,0.152-0.613,0.195-0.847
								c0.046-0.232,0.077-0.388,0.077-0.388l-0.955-0.208c0,0-0.03,0.152-0.076,0.382c-0.042,0.23-0.108,0.535-0.192,0.835
								C209.302,156.494,209.146,157.098,209.146,157.098z"/>
							<path fill="#FFFFFF" d="M208.136,160.672l0.934,0.291c0,0,0.192-0.603,0.385-1.205c0.181-0.605,0.328-1.221,0.328-1.221
								l-0.943-0.258c0,0-0.146,0.607-0.323,1.205C208.326,160.078,208.136,160.672,208.136,160.672z"/>
							<path fill="#FFFFFF" d="M206.944,164.188l0.917,0.339c0,0,0.224-0.591,0.448-1.183c0.192-0.602,0.384-1.204,0.384-1.204
								l-0.928-0.306c0,0-0.189,0.594-0.379,1.188C207.165,163.605,206.944,164.188,206.944,164.188z"/>
						</g>
					</g>
					<g>
						<g>
							<path fill="#FFFFFF" d="M205.572,167.642l0.899,0.385c0,0,0.267-0.573,0.5-1.16c0.225-0.591,0.449-1.182,0.449-1.182
								l-0.911-0.354c0,0-0.222,0.583-0.443,1.166C205.837,167.076,205.573,167.643,205.572,167.642z"/>
							<path fill="#FFFFFF" d="M204.029,171.021l0.878,0.429c0,0,0.071-0.141,0.179-0.353c0.111-0.209,0.25-0.493,0.373-0.784
								c0.256-0.578,0.512-1.156,0.512-1.156l-0.893-0.399c0,0-0.252,0.57-0.505,1.142c-0.121,0.287-0.259,0.567-0.368,0.774
								C204.1,170.882,204.029,171.021,204.029,171.021z"/>
							<path fill="#FFFFFF" d="M202.318,174.319l0.855,0.473c0,0,0.326-0.542,0.601-1.112c0.286-0.563,0.573-1.127,0.573-1.127
								l-0.871-0.443c0,0-0.283,0.557-0.565,1.112C202.641,173.784,202.318,174.319,202.318,174.319z"/>
							<path fill="#FFFFFF" d="M200.447,177.531l0.832,0.513c0,0,0.086-0.132,0.214-0.331c0.118-0.206,0.276-0.479,0.434-0.753
								c0.315-0.548,0.631-1.096,0.631-1.096l-0.849-0.485c0,0-0.312,0.54-0.622,1.081c-0.155,0.271-0.312,0.541-0.428,0.743
								C200.532,177.399,200.447,177.531,200.447,177.531z"/>
							<path fill="#FFFFFF" d="M198.424,180.648l0.806,0.553c0,0,0.351-0.525,0.693-1.057c0.343-0.53,0.686-1.062,0.686-1.062
								l-0.823-0.526c0,0-0.339,0.524-0.678,1.048C198.77,180.13,198.424,180.648,198.424,180.648z"/>
							<polygon fill="#FFFFFF" points="196.251,183.666 197.03,184.256 198.507,182.205 197.709,181.64 							"/>
							<polygon fill="#FFFFFF" points="193.934,186.572 194.685,187.197 196.261,185.224 195.491,184.621 							"/>
						</g>
					</g>
					<g>
						<g>
							<polygon fill="#FFFFFF" points="191.483,189.37 192.205,190.029 193.877,188.135 193.136,187.498 							"/>
							<polygon fill="#FFFFFF" points="188.91,192.054 189.602,192.745 191.363,190.935 190.652,190.265 							"/>
							<polygon fill="#FFFFFF" points="186.222,194.621 186.881,195.343 188.728,193.618 188.047,192.917 							"/>
							<polygon fill="#FFFFFF" points="183.422,197.069 184.05,197.818 185.976,196.185 185.326,195.454 							"/>
							<path fill="#FFFFFF" d="M180.521,199.396l0.595,0.775c0,0,0.5-0.386,1-0.771c0.503-0.382,0.992-0.781,0.992-0.781
								l-0.617-0.758c0,0-0.483,0.395-0.981,0.772C181.015,199.014,180.521,199.396,180.521,199.396z"/>
							<path fill="#FFFFFF" d="M177.522,201.597l0.562,0.8c0,0,0.518-0.361,1.034-0.724c0.524-0.353,1.018-0.747,1.018-0.747
								l-0.584-0.783c0,0-0.487,0.391-1.006,0.738C178.034,201.239,177.522,201.597,177.522,201.597z"/>
							<path fill="#FFFFFF" d="M174.436,203.672l0.528,0.822c0,0,0.533-0.338,1.066-0.676c0.53-0.342,1.042-0.713,1.041-0.713
								l-0.551-0.808c0.001,0-0.505,0.367-1.029,0.706C174.964,203.338,174.436,203.672,174.436,203.672z"/>
						</g>
					</g>
					<g>
						<g>
							<path fill="#FFFFFF" d="M171.266,205.619l0.493,0.844c0,0,0.547-0.316,1.094-0.632c0.533-0.338,1.066-0.676,1.066-0.676
								l-0.517-0.829c0,0-0.527,0.334-1.055,0.668C171.807,205.307,171.266,205.619,171.266,205.619z"/>
							<path fill="#FFFFFF" d="M168.02,207.437l0.459,0.863c0,0,0.568-0.275,1.111-0.599c0.548-0.313,1.097-0.626,1.097-0.626
								l-0.482-0.851c0,0-0.543,0.31-1.085,0.619C168.582,207.164,168.02,207.437,168.02,207.437z"/>
							<path fill="#FFFFFF" d="M164.703,209.123l0.424,0.881c0,0,0.567-0.277,1.128-0.566c0.562-0.288,1.124-0.575,1.124-0.575
								l-0.447-0.869c0,0-0.557,0.284-1.112,0.569C165.265,208.849,164.703,209.123,164.703,209.123z"/>
							<polygon fill="#FFFFFF" points="161.317,210.667 161.705,211.563 164.002,210.517 163.59,209.63 							"/>
							<polygon fill="#FFFFFF" points="157.869,212.067 158.222,212.979 160.564,212.037 160.188,211.135 							"/>
							<polygon fill="#FFFFFF" points="154.37,213.334 154.687,214.259 157.068,213.423 156.728,212.507 							"/>
							<polygon fill="#FFFFFF" points="150.826,214.465 151.106,215.401 153.521,214.668 153.217,213.739 							"/>
						</g>
					</g>
					<g>
						<g>
							<path fill="#FFFFFF" d="M147.24,215.462l0.243,0.946c0,0,0.612-0.154,1.225-0.31c0.615-0.143,1.215-0.341,1.215-0.341
								l-0.269-0.939c0,0-0.594,0.196-1.202,0.337C147.846,215.309,147.24,215.462,147.24,215.462z"/>
							<path fill="#FFFFFF" d="M143.62,216.323l0.207,0.956c0,0,0.618-0.13,1.235-0.259c0.612-0.155,1.224-0.31,1.224-0.31
								l-0.231-0.949c0,0-0.605,0.152-1.211,0.306C144.231,216.195,143.62,216.323,143.62,216.323z"/>
							<path fill="#FFFFFF" d="M139.971,217.052l0.17,0.962c0,0,0.624-0.096,1.24-0.232c0.618-0.127,1.236-0.254,1.236-0.254
								l-0.195-0.958c0,0-0.612,0.126-1.224,0.252C140.588,216.957,139.971,217.051,139.971,217.052z"/>
							<polygon fill="#FFFFFF" points="136.294,217.636 136.428,218.604 138.921,218.208 138.762,217.243 							"/>
							<polygon fill="#FFFFFF" points="132.597,218.064 132.694,219.037 135.203,218.753 135.081,217.783 							"/>
							<polygon fill="#FFFFFF" points="128.886,218.36 128.947,219.336 131.465,219.165 131.38,218.191 							"/>
							<path fill="#FFFFFF" d="M125.168,218.524l0.025,0.977c0,0,0.631-0.014,1.262-0.028c0.631-0.003,1.26-0.054,1.26-0.054
								l-0.049-0.977c0,0-0.623,0.051-1.248,0.054C125.793,218.51,125.168,218.524,125.168,218.524z"/>
						</g>
					</g>
					<g>
						<g>
							<path fill="#FFFFFF" d="M121.446,218.55l-0.01,0.978c0,0,0.631,0.028,1.261,0.03c0.631-0.015,1.262-0.028,1.262-0.028
								l-0.014-0.978c0,0-0.625,0.014-1.25,0.028C122.071,218.578,121.446,218.55,121.446,218.55z"/>
							<polygon fill="#FFFFFF" points="117.725,218.435 117.679,219.411 120.201,219.489 120.224,218.512 							"/>
							<path fill="#FFFFFF" d="M114.013,218.181l-0.083,0.975c0,0,0.628,0.059,1.257,0.117c0.314,0.029,0.628,0.059,0.864,0.08
								c0.236,0.023,0.394,0.021,0.394,0.021l0.058-0.977c0,0.001-0.157,0.003-0.39-0.02c-0.233-0.021-0.544-0.051-0.855-0.08
								C114.635,218.239,114.013,218.181,114.013,218.181z"/>
							<polygon fill="#FFFFFF" points="110.306,217.835 110.188,218.806 112.7,219.04 112.794,218.067 							"/>
							<polygon fill="#FFFFFF" points="106.626,217.274 106.471,218.24 108.965,218.63 109.096,217.661 							"/>
							<path fill="#FFFFFF" d="M102.961,216.633l-0.192,0.959c0,0,0.615,0.146,1.234,0.262c0.624,0.098,1.247,0.195,1.247,0.195
								l0.167-0.963c0,0-0.617-0.097-1.234-0.193C103.569,216.777,102.961,216.633,102.961,216.633z"/>
							<polygon fill="#FFFFFF" points="99.327,215.831 99.099,216.782 101.563,217.326 101.767,216.37 							"/>
						</g>
					</g>
				</g>
			</g>
		</g>
	</g>
	<path fill="#0D436B" d="M57.119,214.404c0.647-0.418,1.878-2.984,10.627-4.133c2.951-0.389,11.958,0.332,23.38,1.262l21.631-14.818
		l7.616-0.826l-15.941,16.697c7.436,0.563,15.239,1.082,22.699,1.379l11.495-12.771l4.307,0.189l-7.663,17.668l5.648,6.297
		l-5.294,0.51l-4.806-3.994c-8.021,1.504-17.834,2.645-29.538,2.867l10.386,17.553l-6.806-1.203l-14.907-16.326
		c-31.576-0.459-35.688-5.127-36.689-6.463C52.161,216.824,56.472,214.82,57.119,214.404z"/>
</g>
</svg>
